<?xml version="1.0" encoding="UTF-8"?>
<!DOCTYPE svg PUBLIC "-//W3C//DTD SVG 1.1//EN" "http://www.w3.org/Graphics/SVG/1.1/DTD/svg11.dtd">
<!-- Creator: CorelDRAW X7 -->
<svg xmlns="http://www.w3.org/2000/svg" xml:space="preserve" width="8.5in" height="11in" version="1.1" style="shape-rendering:geometricPrecision; text-rendering:geometricPrecision; image-rendering:optimizeQuality; fill-rule:evenodd; clip-rule:evenodd"
viewBox="0 0 8500 11000"
 xmlns:xlink="http://www.w3.org/1999/xlink">
 <defs>
  <style type="text/css">
   <![CDATA[
    .fil1 {fill:#26A949}
    .fil2 {fill:#2C4BA5}
    .fil8 {fill:#7183B8}
    .fil3 {fill:#88CB99}
    .fil4 {fill:#9DABDB}
    .fil5 {fill:#B1E6BC}
    .fil7 {fill:#D98346}
    .fil0 {fill:#F27115}
    .fil6 {fill:#F7AE76}
    .fil9 {fill:#FED0A6}
   ]]>
  </style>
 </defs>
 <g id="Layer_x0020_1">
  <metadata id="CorelCorpID_0Corel-Layer"/>
  <g id="_1039298483888">
   <path class="fil0" d="M4213 3870c28,9 11,480 13,568 0,0 1,41 1,41 -7,54 7,23 -17,36 -108,30 -491,-7 -641,10 -40,-31 -20,-257 -20,-317 0,-97 -9,-248 0,-337 60,-42 471,-20 598,-22 55,-1 51,-10 66,21zm-1128 1140l1619 -2 4 -1618c-47,-16 -1549,-24 -1624,-6 -2,3 -3,4 -4,8l-6 389c-1,193 -13,1178 11,1229z"/>
   <path class="fil1" d="M3000 4521c-160,0 -1066,16 -1139,-7 -22,-60 -14,-553 -5,-648 94,-19 959,-4 1142,-7l5 -487 -1638 -2 -2 1637 1637 2 0 -488z"/>
   <path class="fil2" d="M2517 6645l-1 11 2 58c71,9 435,11 493,-5l0 -1628c-74,-21 -1450,-8 -1651,-8l0 492 1146 0c27,69 11,933 11,1080z"/>
   <path class="fil2" d="M3069 6716l479 -2 10 -1144 35 -12c103,-13 935,20 1112,-3l0 -476c-102,-25 -670,-6 -819,-6 -255,0 -571,-17 -818,2l1 1641z"/>
   <path class="fil3" d="M3011 4520l-11 1 0 488 -1637 -2 2 -1637 1638 2 -5 487c2,-2 10,15 14,-46l-1 -459 -1656 0c-20,237 -11,590 -11,833 0,165 -21,757 11,833l1656 0 0 -500z"/>
   <path class="fil4" d="M2517 6645c0,-147 16,-1011 -11,-1080l-1146 0 0 -492c201,0 1577,-13 1651,8 -19,-21 25,-21 -94,-19l-1562 0 0 510 1145 0 0 1042c6,32 -1,14 17,31z"/>
   <path class="fil5" d="M3000 4521l11 -1 -52 -11c-214,-3 -1011,-7 -1098,5l4 -639 1105 0c31,-5 13,1 28,-16 -183,3 -1048,-12 -1142,7 -9,95 -17,588 5,648 73,23 979,7 1139,7z"/>
   <path class="fil4" d="M3069 6716c2,11 -21,12 45,13l387 0c63,1 48,0 62,-18l-15 3 -479 2 -1 -1641c247,-19 563,-2 818,-2 149,0 717,-19 819,6l14 3c-12,-26 28,-21 -94,-20 -255,3 -1538,-7 -1558,4 -20,12 -15,53 -15,90l0 1458c0,16 -1,37 -1,53 2,66 -1,36 18,49z"/>
   <path class="fil6" d="M3085 5010l-21 -3c14,13 -26,15 92,13l1563 0 0 -1650 -11 0 0 20 -4 1618 -1619 2z"/>
   <path class="fil7" d="M3064 5007l21 3c-24,-51 -12,-1036 -11,-1229l6 -389c1,-4 2,-5 4,-8 75,-18 1577,-10 1624,6l0 -20 -1639 -1c-26,100 -7,671 -7,818 0,264 -13,561 2,820z"/>
   <path class="fil8" d="M3548 6714l15 -3c0,-28 4,-43 4,-53 -1,-14 -4,-43 -5,-65 -1,-210 -13,-918 11,-1021l1146 0 0 -490 -14 -3 0 476c-177,23 -1009,-10 -1112,3l-35 12 -10 1144z"/>
   <path class="fil9" d="M3569 4516l4 -641 604 0c24,0 31,7 31,31 0,694 45,604 -135,604 -117,0 -429,-8 -504,6zm0 9c150,-17 533,20 641,-10l3 -645c-50,-17 -581,-15 -650,-3 -17,81 -16,606 6,658z"/>
   <path class="fil9" d="M3064 5007c-15,-259 -2,-556 -2,-820 0,-147 -19,-718 7,-818l1639 1 11 0 -1616 -17c-64,6 -20,-5 -34,16 -22,16 -11,-28 -18,36 -1,8 1,42 1,53l0 1458c0,68 -8,72 12,91z"/>
   <path class="fil7" d="M3569 4525c-22,-52 -23,-577 -6,-658 69,-12 600,-14 650,3l-3 645c24,-13 10,18 17,-36 0,0 -1,-41 -1,-41 -2,-88 15,-559 -13,-568 -15,-31 -11,-22 -66,-21 -127,2 -538,-20 -598,22 -9,89 0,240 0,337 0,60 -20,286 20,317z"/>
   <path class="fil4" d="M3011 6709c-58,16 -422,14 -493,5l-2 -58c-24,13 -9,-7 -15,22 -12,54 33,51 61,51l418 0c34,-7 13,6 31,-20z"/>
  </g>
 </g>
</svg>
